<?xml version="1.0" encoding="iso-8859-1"?>
<!-- Generator: Adobe Illustrator 19.0.0, SVG Export Plug-In . SVG Version: 6.00 Build 0)  -->
<svg version="1.1" id="Layer_1" xmlns="http://www.w3.org/2000/svg" xmlns:xlink="http://www.w3.org/1999/xlink" x="0px" y="0px"
	 viewBox="0 0 511.991 511.991" style="enable-background:new 0 0 511.991 511.991;" xml:space="preserve">
<circle style="fill:#1F84CE;" cx="255.996" cy="255.996" r="255.996"/>
<circle style="fill:#FFFFFF;" cx="255.996" cy="255.996" r="192.484"/>
<path style="opacity:0.15;fill:#145587;enable-background:new    ;" d="M218.618,372.636c-9.854,0-19.708-3.759-27.227-11.278
	l-51.254-51.254c-15.038-15.038-15.038-39.418,0-54.456c15.036-15.036,39.418-15.038,54.454,0l24.026,24.027l98.783-98.784
	c15.037-15.038,39.418-15.037,54.454,0c15.037,15.038,15.037,39.418,0,54.456l-126.01,126.011
	C238.327,368.878,228.472,372.636,218.618,372.636z"/>
<path style="fill:#FB7686;" d="M218.618,352.159c-9.854,0-19.708-3.759-27.227-11.278l-51.254-51.254
	c-15.038-15.038-15.038-39.418,0-54.456c15.036-15.036,39.418-15.038,54.454,0l24.026,24.027l98.783-98.784
	c15.037-15.038,39.418-15.037,54.454,0c15.037,15.038,15.037,39.418,0,54.456l-126.01,126.011
	C238.327,348.4,228.472,352.159,218.618,352.159z"/>
<path style="opacity:0.15;fill:#145587;enable-background:new    ;" d="M256,63.52c-106.304,0-192.479,86.175-192.479,192.479
	c0,4.717,0.178,9.393,0.512,14.026c7.185-99.753,90.382-178.453,191.969-178.453s184.782,78.7,191.968,178.453
	c0.334-4.633,0.512-9.308,0.512-14.026C448.479,149.696,362.304,63.52,256,63.52z"/>
<g>
</g>
<g>
</g>
<g>
</g>
<g>
</g>
<g>
</g>
<g>
</g>
<g>
</g>
<g>
</g>
<g>
</g>
<g>
</g>
<g>
</g>
<g>
</g>
<g>
</g>
<g>
</g>
<g>
</g>
</svg>
