<?xml version="1.0" encoding="iso-8859-1"?>
<!-- Generator: Adobe Illustrator 19.0.0, SVG Export Plug-In . SVG Version: 6.00 Build 0)  -->
<svg version="1.1" id="Layer_1" xmlns="http://www.w3.org/2000/svg" xmlns:xlink="http://www.w3.org/1999/xlink" x="0px" y="0px"
	 viewBox="0 0 512 512" style="enable-background:new 0 0 512 512;" xml:space="preserve">
<g>
	<g>
		<g>
			<path d="M437.019,74.981C388.667,26.628,324.381,0,255.999,0S123.332,26.628,74.981,74.981C26.628,123.332,0,187.619,0,255.999
				s26.628,132.669,74.981,181.02C123.332,485.371,187.619,512,255.999,512s132.667-26.628,181.02-74.981
				C485.371,388.668,512,324.38,512,255.999S485.371,123.332,437.019,74.981z M425.714,425.715
				c-45.332,45.332-105.604,70.297-169.715,70.297c-64.109,0-124.383-24.966-169.715-70.297S15.987,320.11,15.987,255.999
				S40.953,131.617,86.286,86.285S191.89,15.987,255.999,15.987c64.11,0,124.383,24.965,169.715,70.297
				c45.332,45.332,70.299,105.606,70.299,169.715S471.046,380.383,425.714,425.715z"/>
			<path d="M255.999,61.536c-107.228,0-194.464,87.236-194.464,194.463s87.236,194.463,194.464,194.463
				s194.464-87.235,194.464-194.463S363.227,61.536,255.999,61.536z M255.999,434.476c-98.412,0-178.477-80.063-178.477-178.476
				S157.587,77.524,255.999,77.524s178.476,80.063,178.476,178.476S354.412,434.476,255.999,434.476z"/>
			<path d="M373.892,157.747c-8.555-8.554-19.931-13.266-32.03-13.266c-12.099,0-23.474,4.712-32.029,13.266l-90.047,90.048
				l-17.624-17.624c-17.66-17.661-46.397-17.664-64.059,0c-17.66,17.66-17.66,46.398,0,64.06l49.654,49.654
				c8.555,8.554,19.931,13.266,32.03,13.266c12.099,0,23.474-4.712,32.03-13.266l122.077-122.077
				C391.552,204.146,391.552,175.408,373.892,157.747z M362.587,210.502L240.51,332.579c-5.536,5.536-12.896,8.585-20.725,8.585
				c-7.829,0-15.189-3.048-20.725-8.585l-49.654-49.653c-11.428-11.429-11.428-30.024,0-41.451
				c5.715-5.715,13.219-8.571,20.726-8.571c7.504,0,15.011,2.857,20.725,8.571l23.276,23.277c1.499,1.499,3.532,2.341,5.652,2.341
				s4.153-0.842,5.652-2.341l95.7-95.701c5.535-5.535,12.895-8.584,20.725-8.584c7.828,0,15.189,3.048,20.725,8.584
				C374.014,180.48,374.014,199.075,362.587,210.502z"/>
		</g>
	</g>
</g>
<g>
</g>
<g>
</g>
<g>
</g>
<g>
</g>
<g>
</g>
<g>
</g>
<g>
</g>
<g>
</g>
<g>
</g>
<g>
</g>
<g>
</g>
<g>
</g>
<g>
</g>
<g>
</g>
<g>
</g>
</svg>
